<svg width="33" height="30" viewBox="0 0 33 30" fill="none" xmlns="http://www.w3.org/2000/svg">
<mask id="path-1-inside-1_16_1456" fill="white">
<path d="M20.3435 14.6446C20.1027 14.6446 19.8791 14.5784 19.6805 14.4719V14.4748C19.6805 14.8536 19.5333 15.2094 19.2661 15.4758C18.999 15.743 18.6435 15.8903 18.2651 15.8903C18.0207 15.8903 17.7943 15.8224 17.5936 15.7131C17.5733 16.0597 17.4348 16.3836 17.1877 16.631C16.9205 16.8982 16.565 17.0454 16.1863 17.0454C15.4341 17.0454 14.8231 16.4541 14.7791 15.7129C14.5463 15.8387 14.2832 15.9046 14.0118 15.8872C13.2717 15.8387 12.6922 15.1993 12.6922 14.4312V8.06453L11.9672 9.32049C11.6911 9.80087 11.1742 10.0991 10.6177 10.0991C10.3465 10.0991 10.0786 10.028 9.8414 9.89204C9.54597 9.72076 9.33464 9.44582 9.24675 9.1169C9.15841 8.78777 9.20411 8.44356 9.37492 8.14857C9.37515 8.14857 11.7469 4.04137 11.8916 3.78908C11.9088 3.75115 11.9578 3.64113 11.9995 3.54736C12.0393 3.45783 12.0735 3.36595 12.1062 3.27359C12.8215 1.25431 14.5925 -1.90735e-05 16.7284 -1.90735e-05C19.5021 -1.90735e-05 21.7587 2.44688 21.7587 5.45457L21.7589 13.2289C21.7589 13.6073 21.6119 13.9628 21.345 14.2302C21.0778 14.4974 20.7223 14.6447 20.3435 14.6447L20.3435 14.6446ZM16.7285 0.752123C14.8931 0.752123 13.4303 1.78878 12.8152 3.52514C12.7758 3.6354 12.7348 3.74565 12.687 3.85309C12.5482 4.16432 12.5482 4.16432 12.5091 4.20907L12.504 4.2046C12.3103 4.57001 11.735 5.56635 10.0262 8.525C9.95596 8.64633 9.93735 8.78723 9.97316 8.92198C10.0094 9.05675 10.0964 9.1703 10.2168 9.2398C10.5904 9.45443 11.1022 9.3159 11.3151 8.94484L12.7426 6.47339C12.8279 6.32614 13.0004 6.25381 13.1658 6.29858C13.3302 6.34263 13.4445 6.49177 13.4445 6.66187V14.4314C13.4445 14.798 13.7211 15.1144 14.061 15.1368C14.2571 15.1471 14.4399 15.0814 14.5772 14.9443C14.7021 14.8194 14.7709 14.6531 14.7709 14.4752V9.39383C14.7709 9.18603 14.9394 9.01757 15.1472 9.01757C15.3549 9.01757 15.5234 9.18579 15.5234 9.39383L15.5232 15.6302C15.5232 15.9958 15.8207 16.2934 16.1864 16.2934C16.364 16.2934 16.5308 16.2246 16.6559 16.0997C16.7808 15.9746 16.8496 15.8078 16.8496 15.6302V9.39382C16.8496 9.18602 17.0178 9.01757 17.2258 9.01757C17.4336 9.01757 17.6021 9.18579 17.6021 9.39382L17.6018 14.4168V14.4752C17.6018 14.8406 17.8994 15.1381 18.2653 15.1381C18.4427 15.1381 18.609 15.0691 18.7348 14.9438C18.8597 14.8191 18.9285 14.6528 18.9285 14.4749V9.39356C18.9285 9.18576 19.0967 9.01731 19.3047 9.01731C19.5125 9.01731 19.681 9.18552 19.681 9.39356L19.6805 13.2291C19.6805 13.595 19.9781 13.8925 20.3435 13.8925C20.5214 13.8925 20.6877 13.8235 20.8126 13.6989C20.9379 13.5736 21.0065 13.4067 21.0065 13.2291L21.0067 5.45475C21.0067 2.86201 19.0875 0.752201 16.7284 0.752201L16.7285 0.752123Z"/>
</mask>
<path d="M20.3435 14.6446C20.1027 14.6446 19.8791 14.5784 19.6805 14.4719V14.4748C19.6805 14.8536 19.5333 15.2094 19.2661 15.4758C18.999 15.743 18.6435 15.8903 18.2651 15.8903C18.0207 15.8903 17.7943 15.8224 17.5936 15.7131C17.5733 16.0597 17.4348 16.3836 17.1877 16.631C16.9205 16.8982 16.565 17.0454 16.1863 17.0454C15.4341 17.0454 14.8231 16.4541 14.7791 15.7129C14.5463 15.8387 14.2832 15.9046 14.0118 15.8872C13.2717 15.8387 12.6922 15.1993 12.6922 14.4312V8.06453L11.9672 9.32049C11.6911 9.80087 11.1742 10.0991 10.6177 10.0991C10.3465 10.0991 10.0786 10.028 9.8414 9.89204C9.54597 9.72076 9.33464 9.44582 9.24675 9.1169C9.15841 8.78777 9.20411 8.44356 9.37492 8.14857C9.37515 8.14857 11.7469 4.04137 11.8916 3.78908C11.9088 3.75115 11.9578 3.64113 11.9995 3.54736C12.0393 3.45783 12.0735 3.36595 12.1062 3.27359C12.8215 1.25431 14.5925 -1.90735e-05 16.7284 -1.90735e-05C19.5021 -1.90735e-05 21.7587 2.44688 21.7587 5.45457L21.7589 13.2289C21.7589 13.6073 21.6119 13.9628 21.345 14.2302C21.0778 14.4974 20.7223 14.6447 20.3435 14.6447L20.3435 14.6446ZM16.7285 0.752123C14.8931 0.752123 13.4303 1.78878 12.8152 3.52514C12.7758 3.6354 12.7348 3.74565 12.687 3.85309C12.5482 4.16432 12.5482 4.16432 12.5091 4.20907L12.504 4.2046C12.3103 4.57001 11.735 5.56635 10.0262 8.525C9.95596 8.64633 9.93735 8.78723 9.97316 8.92198C10.0094 9.05675 10.0964 9.1703 10.2168 9.2398C10.5904 9.45443 11.1022 9.3159 11.3151 8.94484L12.7426 6.47339C12.8279 6.32614 13.0004 6.25381 13.1658 6.29858C13.3302 6.34263 13.4445 6.49177 13.4445 6.66187V14.4314C13.4445 14.798 13.7211 15.1144 14.061 15.1368C14.2571 15.1471 14.4399 15.0814 14.5772 14.9443C14.7021 14.8194 14.7709 14.6531 14.7709 14.4752V9.39383C14.7709 9.18603 14.9394 9.01757 15.1472 9.01757C15.3549 9.01757 15.5234 9.18579 15.5234 9.39383L15.5232 15.6302C15.5232 15.9958 15.8207 16.2934 16.1864 16.2934C16.364 16.2934 16.5308 16.2246 16.6559 16.0997C16.7808 15.9746 16.8496 15.8078 16.8496 15.6302V9.39382C16.8496 9.18602 17.0178 9.01757 17.2258 9.01757C17.4336 9.01757 17.6021 9.18579 17.6021 9.39382L17.6018 14.4168V14.4752C17.6018 14.8406 17.8994 15.1381 18.2653 15.1381C18.4427 15.1381 18.609 15.0691 18.7348 14.9438C18.8597 14.8191 18.9285 14.6528 18.9285 14.4749V9.39356C18.9285 9.18576 19.0967 9.01731 19.3047 9.01731C19.5125 9.01731 19.681 9.18552 19.681 9.39356L19.6805 13.2291C19.6805 13.595 19.9781 13.8925 20.3435 13.8925C20.5214 13.8925 20.6877 13.8235 20.8126 13.6989C20.9379 13.5736 21.0065 13.4067 21.0065 13.2291L21.0067 5.45475C21.0067 2.86201 19.0875 0.752201 16.7284 0.752201L16.7285 0.752123Z" fill="#4CAF4F"/>
<path d="M20.3435 14.6446V13.3113H25.0542L21.0423 15.7802L20.3435 14.6446ZM19.6805 14.4719H18.3472V12.2441L20.3106 13.2969L19.6805 14.4719ZM19.2661 15.4758L18.3233 14.533L18.3246 14.5318L19.2661 15.4758ZM17.5936 15.7131L16.2625 15.6353L16.3852 13.5368L18.2313 14.5421L17.5936 15.7131ZM17.1877 16.631L18.131 17.5733L18.1305 17.5738L17.1877 16.631ZM14.7791 15.7129L14.1452 14.5399L15.986 13.5449L16.1101 15.6338L14.7791 15.7129ZM14.0118 15.8872L13.9263 17.2178L13.9245 17.2177L14.0118 15.8872ZM12.6922 8.06453L11.5374 7.39798L14.0255 3.08747V8.06453H12.6922ZM11.9672 9.32049L10.8112 8.65604L10.8124 8.65394L11.9672 9.32049ZM9.8414 9.89204L9.17851 11.0489L9.17267 11.0455L9.8414 9.89204ZM9.24675 9.1169L10.5345 8.77123L10.5349 8.77273L9.24675 9.1169ZM9.37492 8.14857L8.22106 7.48045L8.60624 6.81524H9.37492V8.14857ZM11.8916 3.78908L13.1059 4.33969L13.0798 4.39742L13.0482 4.45242L11.8916 3.78908ZM11.9995 3.54736L10.7812 3.00557L10.7812 3.00555L11.9995 3.54736ZM12.1062 3.27359L13.3631 3.71877L13.3629 3.71914L12.1062 3.27359ZM21.7587 5.45457L20.4253 5.45461V5.45457H21.7587ZM21.7589 13.2289L23.0922 13.2289V13.2289H21.7589ZM21.345 14.2302L22.2886 15.1722L22.2878 15.1731L21.345 14.2302ZM20.3435 14.6447V15.978H15.6327L19.6447 13.5091L20.3435 14.6447ZM16.7285 0.752123V-0.581209H18.4961L18.0105 1.11842L16.7285 0.752123ZM12.8152 3.52514L14.072 3.97038L14.071 3.97325L12.8152 3.52514ZM12.687 3.85309L13.9051 4.39536L13.9048 4.39606L12.687 3.85309ZM12.5091 4.20907L13.5132 5.08636L12.6409 6.08466L11.6376 5.21817L12.5091 4.20907ZM12.504 4.2046L11.3258 3.58023L12.1093 2.10199L13.3754 3.1955L12.504 4.2046ZM10.0262 8.525L11.1808 9.19185L11.1802 9.19281L10.0262 8.525ZM9.97316 8.92198L8.68566 9.26861L8.68456 9.26444L9.97316 8.92198ZM10.2168 9.2398L9.55266 10.396L9.55017 10.3945L10.2168 9.2398ZM11.3151 8.94484L10.1587 8.28113L10.1606 8.27796L11.3151 8.94484ZM12.7426 6.47339L11.588 5.80651L11.5889 5.80511L12.7426 6.47339ZM13.1658 6.29858L12.8207 7.5865L12.8174 7.5856L13.1658 6.29858ZM14.061 15.1368L13.9906 16.4682L13.9821 16.4678L13.9735 16.4672L14.061 15.1368ZM14.5772 14.9443L15.5201 15.8871L15.5192 15.8879L14.5772 14.9443ZM15.5234 9.39383H16.8567V9.39388L15.5234 9.39383ZM15.5232 15.6302H14.1898V15.6301L15.5232 15.6302ZM16.6559 16.0997L17.5996 17.0417L17.5978 17.0435L16.6559 16.0997ZM17.6021 9.39382H18.9354V9.39388L17.6021 9.39382ZM17.6018 14.4168H16.2685V14.4167L17.6018 14.4168ZM18.7348 14.9438L19.6768 15.8875L19.6759 15.8883L18.7348 14.9438ZM19.681 9.39356H21.0143V9.39372L19.681 9.39356ZM19.6805 13.2291H18.3472V13.2289L19.6805 13.2291ZM20.8126 13.6989L21.7554 14.6417L21.7545 14.6426L20.8126 13.6989ZM21.0065 13.2291H19.6731V13.2291L21.0065 13.2291ZM21.0067 5.45475H22.34V5.45479L21.0067 5.45475ZM16.7284 0.752201V2.08553H14.9608L15.4464 0.385906L16.7284 0.752201ZM20.3435 15.978C19.8525 15.978 19.4142 15.8421 19.0505 15.647L20.3106 13.2969C20.3278 13.3061 20.3388 13.3096 20.3431 13.3108C20.3469 13.3118 20.3464 13.3113 20.3435 13.3113V15.978ZM21.0139 14.4719V14.4748H18.3472V14.4719H21.0139ZM21.0139 14.4748C21.0139 15.2061 20.7269 15.9021 20.2077 16.4199L18.3246 14.5318C18.3341 14.5223 18.3388 14.5141 18.3416 14.5075C18.3443 14.5008 18.3472 14.4905 18.3472 14.4748H21.0139ZM20.2089 16.4187C19.6915 16.9361 18.9968 17.2236 18.2651 17.2236V14.5569C18.2804 14.5569 18.2904 14.5541 18.2973 14.5513C18.3041 14.5485 18.3129 14.5434 18.3233 14.533L20.2089 16.4187ZM18.2651 17.2236C17.7677 17.2236 17.3239 17.0844 16.9559 16.884L18.2313 14.5421C18.2486 14.5516 18.2596 14.5552 18.264 14.5564C18.2677 14.5574 18.2674 14.5569 18.2651 14.5569V17.2236ZM18.9247 15.7909C18.8863 16.4472 18.6201 17.0837 18.131 17.5733L16.2444 15.6887C16.2493 15.6837 16.2522 15.6794 16.2546 15.6738C16.2572 15.6678 16.2613 15.6556 16.2625 15.6353L18.9247 15.7909ZM18.1305 17.5738C17.6129 18.0913 16.9182 18.3787 16.1863 18.3787V15.7121C16.2019 15.7121 16.212 15.7093 16.2188 15.7064C16.2256 15.7036 16.2344 15.6986 16.2448 15.6882L18.1305 17.5738ZM16.1863 18.3787C14.7143 18.3787 13.5332 17.2234 13.4481 15.7919L16.1101 15.6338C16.1114 15.6565 16.1207 15.6764 16.1371 15.692C16.1452 15.6997 16.1533 15.7046 16.1603 15.7075C16.1665 15.71 16.1744 15.7121 16.1863 15.7121V18.3787ZM15.4131 16.8858C14.9824 17.1186 14.4718 17.2528 13.9263 17.2178L14.0972 14.5566C14.0973 14.5566 14.1001 14.5569 14.1071 14.5552C14.1146 14.5535 14.1277 14.5493 14.1452 14.5399L15.4131 16.8858ZM13.9245 17.2177C12.4441 17.1206 11.3588 15.8616 11.3588 14.4312H14.0255C14.0255 14.4763 14.0419 14.511 14.0624 14.5336C14.0824 14.5557 14.096 14.5565 14.099 14.5567L13.9245 17.2177ZM11.3588 14.4312V8.06453H14.0255V14.4312H11.3588ZM13.8469 8.73108L13.122 9.98704L10.8124 8.65394L11.5374 7.39798L13.8469 8.73108ZM13.1232 9.98494C12.608 10.8813 11.649 11.4325 10.6177 11.4325V8.7658C10.6994 8.7658 10.7742 8.72046 10.8112 8.65604L13.1232 9.98494ZM10.6177 11.4325C10.1135 11.4325 9.61714 11.3002 9.17851 11.0489L10.5043 8.73517C10.5402 8.75572 10.5796 8.7658 10.6177 8.7658V11.4325ZM9.17267 11.0455C8.57405 10.6985 8.13833 10.1337 7.95861 9.46107L10.5349 8.77273C10.5337 8.76818 10.5304 8.76013 10.5239 8.75176C10.5176 8.74346 10.5117 8.73942 10.5101 8.73854L9.17267 11.0455ZM7.95901 9.46256C7.77858 8.79041 7.87304 8.08149 8.22106 7.48045L10.5288 8.81669C10.5307 8.81341 10.534 8.80581 10.5354 8.79503C10.5369 8.78422 10.5357 8.7756 10.5345 8.77123L7.95901 9.46256ZM9.37492 6.81524C8.72087 6.98668 8.23131 7.46305 8.22765 7.46919C8.22644 7.47125 8.22462 7.47433 8.22405 7.47532C8.22372 7.47589 8.22315 7.47686 8.22296 7.47719C8.22284 7.47739 8.22259 7.47781 8.22253 7.47791C8.22235 7.47824 8.2224 7.47814 8.22291 7.47727C8.22381 7.47571 8.22533 7.47308 8.22755 7.46925C8.23193 7.46168 8.23851 7.4503 8.2472 7.43525C8.26456 7.40522 8.29007 7.36106 8.32264 7.30467C8.38776 7.19193 8.48097 7.03056 8.59328 6.83608C8.8179 6.44712 9.11889 5.92588 9.4244 5.39675C10.0364 4.33671 10.6639 3.24967 10.735 3.12575L13.0482 4.45242C12.9746 4.58078 12.3438 5.67349 11.7338 6.73012C11.4282 7.25933 11.1272 7.78065 10.9025 8.16968C10.7902 8.36419 10.6969 8.52566 10.6317 8.63852C10.5992 8.69494 10.5735 8.73926 10.5561 8.76951C10.5473 8.78461 10.5406 8.79632 10.536 8.80431C10.5337 8.80826 10.5318 8.81153 10.5304 8.81392C10.5298 8.81502 10.5289 8.81641 10.5282 8.81773C10.5279 8.81822 10.527 8.81969 10.526 8.82145C10.5254 8.82256 10.5235 8.82574 10.5222 8.82786C10.5185 8.83406 10.029 9.31046 9.37492 9.4819V6.81524ZM10.6773 3.23848C10.6919 3.20611 10.7384 3.10174 10.7812 3.00557L13.2178 4.08916C13.1772 4.18051 13.1257 4.29619 13.1059 4.33969L10.6773 3.23848ZM10.7812 3.00555C10.7998 2.96388 10.8203 2.91064 10.8495 2.82805L13.3629 3.71914C13.3267 3.82126 13.2789 3.95178 13.2178 4.08917L10.7812 3.00555ZM10.8494 2.82841C11.7525 0.278934 14.0255 -1.33335 16.7284 -1.33335V1.33331C15.1596 1.33331 13.8905 2.22969 13.3631 3.71877L10.8494 2.82841ZM16.7284 -1.33335C20.3381 -1.33335 23.092 1.81423 23.092 5.45457H20.4253C20.4253 3.07953 18.6661 1.33331 16.7284 1.33331V-1.33335ZM23.092 5.45453L23.0922 13.2289L20.4256 13.229L20.4253 5.45461L23.092 5.45453ZM23.0922 13.2289C23.0922 13.9601 22.8054 14.6545 22.2886 15.1722L20.4013 13.2883C20.4118 13.2778 20.417 13.2688 20.4199 13.2618C20.4228 13.2548 20.4256 13.2445 20.4256 13.2289H23.0922ZM22.2878 15.1731C21.7702 15.6906 21.0754 15.978 20.3435 15.978V13.3113C20.3591 13.3113 20.3694 13.3085 20.3762 13.3057C20.383 13.3029 20.3918 13.2978 20.4022 13.2874L22.2878 15.1731ZM19.6447 13.5091L19.6447 13.5091L21.0423 15.7802L21.0423 15.7802L19.6447 13.5091ZM16.7285 2.08546C15.4608 2.08546 14.4995 2.76361 14.072 3.97038L11.5584 3.0799C12.3611 0.813959 14.3255 -0.581209 16.7285 -0.581209V2.08546ZM14.071 3.97325C14.0289 4.0912 13.9742 4.24015 13.9051 4.39536L11.4689 3.31082C11.4955 3.25115 11.5228 3.1796 11.5594 3.07703L14.071 3.97325ZM13.9048 4.39606C13.8437 4.533 13.7926 4.64865 13.7534 4.72699C13.7291 4.77561 13.6898 4.85054 13.6328 4.93353C13.575 5.01762 13.5178 5.08104 13.5132 5.08636L11.5051 3.33179C11.5082 3.3282 11.5072 3.32937 11.5056 3.3312C11.5036 3.33357 11.4984 3.33961 11.4916 3.3479C11.4845 3.35648 11.4757 3.36757 11.4657 3.38076C11.4556 3.39406 11.4453 3.40821 11.4351 3.42314C11.4142 3.45354 11.3981 3.48016 11.3867 3.50029C11.376 3.51909 11.3694 3.5321 11.368 3.53503C11.3665 3.53806 11.3674 3.53628 11.3719 3.52657C11.3763 3.51717 11.3825 3.50364 11.3915 3.48393C11.4003 3.4644 11.4109 3.44081 11.4239 3.41166C11.4369 3.38256 11.4518 3.34921 11.4692 3.31012L13.9048 4.39606ZM11.6376 5.21817L11.6325 5.2137L13.3754 3.1955L13.3806 3.19998L11.6376 5.21817ZM13.6821 4.82897C13.4734 5.22271 12.8776 6.25383 11.1808 9.19185L8.87157 7.85816C10.5923 4.87886 11.1472 3.91731 11.3258 3.58023L13.6821 4.82897ZM11.1802 9.19281C11.2869 9.00844 11.3166 8.78599 11.2618 8.57952L8.68456 9.26444C8.55806 8.78846 8.62502 8.28423 8.87213 7.8572L11.1802 9.19281ZM11.2606 8.57536C11.2058 8.37157 11.0709 8.19334 10.8834 8.08506L9.55017 10.3945C9.12183 10.1473 8.8131 9.74193 8.68567 9.26861L11.2606 8.57536ZM10.8809 8.08363C10.7291 7.99645 10.5815 7.99703 10.4796 8.02447C10.378 8.05181 10.2478 8.12586 10.1587 8.28114L12.4715 9.60854C11.8904 10.621 10.5624 10.976 9.55266 10.396L10.8809 8.08363ZM10.1606 8.27796L11.588 5.80651L13.8972 7.14027L12.4697 9.61171L10.1606 8.27796ZM11.5889 5.80511C11.974 5.14021 12.7601 4.80746 13.5141 5.01155L12.8174 7.5856C13.2407 7.70016 13.6818 7.51207 13.8964 7.14167L11.5889 5.80511ZM13.5108 5.01066C14.2588 5.21106 14.7778 5.88892 14.7778 6.66187H12.1111C12.1111 7.09461 12.4016 7.47421 12.8207 7.58649L13.5108 5.01066ZM14.7778 6.66187V14.4314H12.1111V6.66187H14.7778ZM14.7778 14.4314C14.7778 14.2795 14.7215 14.1413 14.6291 14.0356C14.5369 13.9301 14.3741 13.8211 14.1486 13.8063L13.9735 16.4672C12.8511 16.3933 12.1111 15.4156 12.1111 14.4314H14.7778ZM14.1315 13.8053C13.9739 13.797 13.7815 13.8547 13.6353 14.0006L15.5192 15.8879C15.0983 16.3081 14.5402 16.4973 13.9906 16.4682L14.1315 13.8053ZM13.6344 14.0015C13.5079 14.128 13.4376 14.3014 13.4376 14.4752H16.1042C16.1042 15.0048 15.8963 15.5108 15.5201 15.8871L13.6344 14.0015ZM13.4376 14.4752V9.39383H16.1042V14.4752H13.4376ZM13.4376 9.39383C13.4376 8.44965 14.203 7.68424 15.1472 7.68424V10.3509C15.6757 10.3509 16.1042 9.92241 16.1042 9.39383H13.4376ZM15.1472 7.68424C16.0908 7.68424 16.8567 8.44888 16.8567 9.39383H14.1901C14.1901 9.92271 14.6191 10.3509 15.1472 10.3509V7.68424ZM16.8567 9.39388L16.8565 15.6302L14.1898 15.6301L14.1901 9.39377L16.8567 9.39388ZM16.8565 15.6302C16.8565 15.2595 16.5571 14.9601 16.1864 14.9601V17.6267C15.0844 17.6267 14.1898 16.7322 14.1898 15.6302H16.8565ZM16.1864 14.9601C16.0128 14.9601 15.8403 15.03 15.714 15.156L17.5978 17.0435C17.2213 17.4192 16.7152 17.6267 16.1864 17.6267V14.9601ZM15.7122 15.1578C15.5862 15.2841 15.5162 15.4567 15.5162 15.6302H18.1829C18.1829 16.159 17.9754 16.6652 17.5996 17.0417L15.7122 15.1578ZM15.5162 15.6302V9.39382H18.1829V15.6302H15.5162ZM15.5162 9.39382C15.5162 8.4502 16.2809 7.68423 17.2258 7.68423V10.3509C17.7547 10.3509 18.1829 9.92185 18.1829 9.39382H15.5162ZM17.2258 7.68423C18.1695 7.68423 18.9354 8.44886 18.9354 9.39382H16.2687C16.2687 9.92271 16.6978 10.3509 17.2258 10.3509V7.68423ZM18.9354 9.39388L18.9352 14.4168L16.2685 14.4167L16.2687 9.39376L18.9354 9.39388ZM18.9352 14.4168V14.4752H16.2685V14.4168H18.9352ZM18.9352 14.4752C18.9352 14.1036 18.6351 13.8048 18.2653 13.8048V16.4715C17.1637 16.4715 16.2685 15.5776 16.2685 14.4752H18.9352ZM18.2653 13.8048C18.0881 13.8048 17.9166 13.8769 17.7938 13.9992L19.6759 15.8883C19.3015 16.2614 18.7973 16.4715 18.2653 16.4715V13.8048ZM17.7929 14.0001C17.6654 14.1274 17.5952 14.3013 17.5952 14.4749H20.2618C20.2618 15.0043 20.054 15.5109 19.6768 15.8875L17.7929 14.0001ZM17.5952 14.4749V9.39356H20.2618V14.4749H17.5952ZM17.5952 9.39356C17.5952 8.44991 18.3598 7.68397 19.3047 7.68397V10.3506C19.8336 10.3506 20.2618 9.92161 20.2618 9.39356H17.5952ZM19.3047 7.68397C20.2484 7.68397 21.0143 8.4486 21.0143 9.39356H18.3477C18.3477 9.92245 18.7767 10.3506 19.3047 10.3506V7.68397ZM21.0143 9.39372L21.0139 13.2293L18.3472 13.2289L18.3477 9.39339L21.0143 9.39372ZM21.0139 13.2291C21.0139 12.8592 20.7151 12.5592 20.3435 12.5592V15.2259C19.2411 15.2259 18.3472 14.3307 18.3472 13.2291H21.0139ZM20.3435 12.5592C20.1686 12.5592 19.996 12.63 19.8706 12.7552L21.7545 14.6426C21.3794 15.017 20.8741 15.2259 20.3435 15.2259V12.5592ZM19.8698 12.7561C19.7428 12.883 19.6731 13.0563 19.6731 13.2291H22.3398C22.3398 13.7572 22.133 14.2641 21.7554 14.6417L19.8698 12.7561ZM19.6731 13.2291L19.6734 5.45471L22.34 5.45479L22.3398 13.2291L19.6731 13.2291ZM19.6734 5.45475C19.6734 3.47688 18.2352 2.08553 16.7284 2.08553V-0.581133C19.9398 -0.581133 22.34 2.24715 22.34 5.45475H19.6734ZM15.4464 0.385906L15.4464 0.385828L18.0105 1.11842L18.0105 1.1185L15.4464 0.385906Z" fill="#4CAF4F" mask="url(#path-1-inside-1_16_1456)"/>
<path d="M3.99512 17.2139L3.91992 17.1739C3.90241 17.2054 3.85248 17.294 3.7793 17.4258C3.80533 17.4388 3.83112 17.4511 3.85742 17.461C3.90231 17.3801 3.94849 17.2979 3.99512 17.2139Z" fill="#4CAF4F" stroke="#4CAF4F" stroke-width="1.33333"/>
<path d="M19.8578 19.0758L19.8597 19.0768C19.8621 19.0785 19.8641 19.0809 19.8666 19.0826C19.8635 19.0805 19.8607 19.0779 19.8578 19.0758Z" fill="#4CAF4F" stroke="#4CAF4F" stroke-width="1.33333"/>
</svg>
