<svg width="48" height="48" viewBox="0 0 48 48" fill="none" xmlns="http://www.w3.org/2000/svg">
<path d="M26.9163 19.0109C26.6043 19.0109 26.3506 18.7576 26.3506 18.4452V17.4839C26.3506 17.1719 26.6039 16.9182 26.9163 16.9182C27.2283 16.9182 27.482 17.1715 27.482 17.4839V18.4452C27.482 18.7576 27.2284 19.0109 26.9163 19.0109Z" fill="#103E13"/>
<path d="M24.5381 19.0109C24.2261 19.0109 23.9724 18.7576 23.9724 18.4452V17.4839C23.9724 17.1719 24.2257 16.9182 24.5381 16.9182C24.8501 16.9182 25.1038 17.1715 25.1038 17.4839V18.4452C25.1034 18.7576 24.8505 19.0109 24.5381 19.0109Z" fill="#103E13"/>
<path d="M22.16 19.0109C21.848 19.0109 21.5944 18.7576 21.5944 18.4452V17.4839C21.5944 17.1719 21.8476 16.9182 22.16 16.9182C22.4721 16.9182 22.7257 17.1715 22.7257 17.4839V18.4452C22.7257 18.7576 22.4725 19.0109 22.16 19.0109Z" fill="#103E13"/>
<path d="M26.9163 22.9421C26.6043 22.9421 26.3506 22.6888 26.3506 22.3764V21.4155C26.3506 21.1035 26.6039 20.8498 26.9163 20.8498C27.2283 20.8498 27.482 21.1031 27.482 21.4155V22.3764C27.482 22.6888 27.2284 22.9421 26.9163 22.9421Z" fill="#103E13"/>
<path d="M24.5381 22.9421C24.2261 22.9421 23.9724 22.6888 23.9724 22.3764V21.4155C23.9724 21.1035 24.2257 20.8498 24.5381 20.8498C24.8501 20.8498 25.1038 21.1031 25.1038 21.4155V22.3764C25.1034 22.6888 24.8505 22.9421 24.5381 22.9421Z" fill="#103E13"/>
<path d="M22.16 22.9421C21.848 22.9421 21.5944 22.6888 21.5944 22.3764V21.4155C21.5944 21.1035 21.8476 20.8498 22.16 20.8498C22.4721 20.8498 22.7257 21.1031 22.7257 21.4155V22.3764C22.7257 22.6888 22.4725 22.9421 22.16 22.9421Z" fill="#103E13"/>
<path d="M26.9163 26.8734C26.6043 26.8734 26.3506 26.6201 26.3506 26.3077V25.3464C26.3506 25.0344 26.6039 24.7807 26.9163 24.7807C27.2283 24.7807 27.482 25.034 27.482 25.3464V26.3077C27.482 26.6201 27.2284 26.8734 26.9163 26.8734Z" fill="#103E13"/>
<path d="M24.5381 26.8734C24.2261 26.8734 23.9724 26.6201 23.9724 26.3077V25.3464C23.9724 25.0344 24.2257 24.7807 24.5381 24.7807C24.8501 24.7807 25.1038 25.034 25.1038 25.3464V26.3077C25.1034 26.6201 24.8505 26.8734 24.5381 26.8734Z" fill="#103E13"/>
<path d="M22.16 26.8734C21.848 26.8734 21.5944 26.6201 21.5944 26.3077V25.3464C21.5944 25.0344 21.8476 24.7807 22.16 24.7807C22.4721 24.7807 22.7257 25.034 22.7257 25.3464V26.3077C22.7257 26.6201 22.4725 26.8734 22.16 26.8734Z" fill="#103E13"/>
<path d="M26.9163 30.8038C26.6043 30.8038 26.3506 30.5505 26.3506 30.2381V29.2768C26.3506 28.9648 26.6039 28.7111 26.9163 28.7111C27.2283 28.7111 27.482 28.9644 27.482 29.2768V30.2381C27.482 30.5505 27.2284 30.8038 26.9163 30.8038Z" fill="#103E13"/>
<path d="M24.5381 30.8038C24.2261 30.8038 23.9724 30.5505 23.9724 30.2381V29.2768C23.9724 28.9648 24.2257 28.7111 24.5381 28.7111C24.8501 28.7111 25.1038 28.9644 25.1038 29.2768V30.2381C25.1034 30.5505 24.8505 30.8038 24.5381 30.8038Z" fill="#103E13"/>
<path d="M22.16 30.8038C21.848 30.8038 21.5944 30.5505 21.5944 30.2381V29.2768C21.5944 28.9648 21.8476 28.7111 22.16 28.7111C22.4721 28.7111 22.7257 28.9644 22.7257 29.2768V30.2381C22.7257 30.5505 22.4725 30.8038 22.16 30.8038Z" fill="#103E13"/>
<path d="M26.9163 34.735C26.6043 34.735 26.3506 34.4817 26.3506 34.1693V33.2084C26.3506 32.8964 26.6039 32.6427 26.9163 32.6427C27.2283 32.6427 27.482 32.896 27.482 33.2084V34.1693C27.482 34.4813 27.2284 34.735 26.9163 34.735Z" fill="#103E13"/>
<path d="M24.5381 34.735C24.2261 34.735 23.9724 34.4817 23.9724 34.1693V33.2084C23.9724 32.8964 24.2257 32.6427 24.5381 32.6427C24.8501 32.6427 25.1038 32.896 25.1038 33.2084V34.1693C25.1034 34.4813 24.8505 34.735 24.5381 34.735Z" fill="#103E13"/>
<path d="M22.16 34.735C21.848 34.735 21.5944 34.4817 21.5944 34.1693L21.5948 33.2084C21.5948 32.8964 21.848 32.6427 22.1604 32.6427C22.4725 32.6427 22.7261 32.896 22.7261 33.2084V34.1693C22.7257 34.4813 22.4725 34.735 22.16 34.735Z" fill="#103E13"/>
<path d="M6.00047 38.6472C6.00047 38.9592 6.25372 39.2128 6.56615 39.2128H41.0139C41.3259 39.2128 41.5796 38.9596 41.5796 38.6472C41.5796 38.3352 41.3263 38.0815 41.0139 38.0815H39.9682V21.8402C39.9682 21.5282 39.715 21.2745 39.4025 21.2745L30.1668 21.2749V9.5658C30.1668 9.36778 30.0635 9.18475 29.8946 9.08218C29.7262 8.97923 29.5156 8.97291 29.3404 9.06403L18.8401 14.531C18.6527 14.6285 18.5359 14.8217 18.5359 15.0328V25.2605H8.37388C8.06186 25.2605 7.8082 25.5137 7.8082 25.8261V38.0816H6.56489C6.25287 38.0812 6 38.3344 6 38.6469L6.00047 38.6472ZM30.167 29.8423H38.8374V38.082L30.167 38.0816V29.8423ZM30.167 25.9113H38.8374V28.7113L30.167 28.7109V25.9113ZM30.167 22.4057H38.8374V24.7808H30.167V22.4057ZM19.6667 15.3763L29.0353 10.4982V38.0811H19.6667V15.3763ZM11.7359 33.5635C11.7359 32.3896 12.666 31.4342 13.8096 31.4342C14.9531 31.4342 15.8837 32.3892 15.8837 33.5635V38.0818H11.7359V33.5635ZM8.93952 26.3916H18.5358V38.0816H17.015V33.5633C17.015 31.7657 15.5776 30.3031 13.8096 30.3031C12.0424 30.3031 10.605 31.7653 10.605 33.5633V38.0816H8.93952V26.3916Z" fill="#103E13"/>
</svg>
